<svg viewBox="0 0 1024 1024" xmlns="http://www.w3.org/2000/svg">
  <defs>
    <clipPath id="bodyClip">
      <rect x="240" y="296" width="544" height="480" rx="56"/>
    </clipPath>
  </defs>

  <!-- Calendar body (no background, transparent — adaptive icon foreground) -->
  <rect x="240" y="296" width="544" height="480" rx="56" fill="#FFFFFF"/>
  <rect x="240" y="296" width="544" height="88" fill="#E63946" clip-path="url(#bodyClip)"/>

  <rect x="378" y="216" width="40" height="124" rx="20" fill="#1E5BA0"/>
  <rect x="606" y="216" width="40" height="124" rx="20" fill="#1E5BA0"/>

  <g fill="#D1D5DB">
    <rect x="300" y="420" width="80" height="60" rx="10"/>
    <rect x="400" y="420" width="80" height="60" rx="10"/>
    <rect x="500" y="420" width="80" height="60" rx="10"/>
    <rect x="600" y="420" width="80" height="60" rx="10"/>
    <rect x="300" y="500" width="80" height="60" rx="10"/>
    <rect x="500" y="500" width="80" height="60" rx="10"/>
    <rect x="600" y="500" width="80" height="60" rx="10"/>
    <rect x="300" y="580" width="80" height="60" rx="10"/>
    <rect x="400" y="580" width="80" height="60" rx="10"/>
    <rect x="500" y="580" width="80" height="60" rx="10"/>
    <rect x="600" y="580" width="80" height="60" rx="10"/>
    <rect x="300" y="660" width="80" height="60" rx="10"/>
    <rect x="400" y="660" width="80" height="60" rx="10"/>
    <rect x="600" y="660" width="80" height="60" rx="10"/>
  </g>

  <rect x="400" y="500" width="80" height="60" rx="10" fill="#2D7DD2"/>
  <path d="M 416 532 L 436 552 L 470 518" stroke="#FFFFFF" stroke-width="12"
        fill="none" stroke-linecap="round" stroke-linejoin="round"/>
</svg>
